<svg width="16" height="16" viewBox="0 0 16 16" fill="none" xmlns="http://www.w3.org/2000/svg">
<path fill-rule="evenodd" clip-rule="evenodd" d="M16 8C16 12.4183 12.4183 16 8 16C3.58172 16 0 12.4183 0 8C0 3.58172 3.58172 0 8 0C12.4183 0 16 3.58172 16 8Z" fill="#001F3F"/>
<path fill-rule="evenodd" clip-rule="evenodd" d="M14.3199 3.09438L9.41423 8.00002L14.3199 12.9056C15.3729 11.551 16 9.84871 16 8C16 6.1513 15.3729 4.44906 14.3199 3.09438ZM12.9057 1.68015L8.00002 6.5858L3.09435 1.68014C4.44904 0.627075 6.15129 0 8 0C9.84872 0 11.551 0.627083 12.9057 1.68015ZM1.68014 3.09435C0.627075 4.44904 0 6.15129 0 8C0 9.84872 0.627083 11.551 1.68015 12.9057L6.5858 8.00002L1.68014 3.09435ZM3.09438 14.3199C4.44906 15.3729 6.1513 16 8 16C9.84871 16 11.551 15.3729 12.9056 14.3199L8.00002 9.41423L3.09438 14.3199Z" fill="#FF4136"/>
</svg>
