<svg width="80" height="40" viewBox="0 0 80 40" fill="none" xmlns="http://www.w3.org/2000/svg">
<path d="M28.3809 20.0566H24.6836V23.0801H28.9785V24H23.5586V15.4688H28.9199V16.3945H24.6836V19.1367H28.3809V20.0566ZM31.3867 24H30.3027V15H31.3867V24ZM34.3047 24H33.2207V15H34.3047V24ZM37.2227 24H36.1387V17.6602H37.2227V24ZM36.0508 15.9785C36.0508 15.8027 36.1035 15.6543 36.209 15.5332C36.3184 15.4121 36.4785 15.3516 36.6895 15.3516C36.9004 15.3516 37.0605 15.4121 37.1699 15.5332C37.2793 15.6543 37.334 15.8027 37.334 15.9785C37.334 16.1543 37.2793 16.3008 37.1699 16.418C37.0605 16.5352 36.9004 16.5938 36.6895 16.5938C36.4785 16.5938 36.3184 16.5352 36.209 16.418C36.1035 16.3008 36.0508 16.1543 36.0508 15.9785ZM44.3184 20.9004C44.3184 21.8652 44.0977 22.6426 43.6562 23.2324C43.2148 23.8223 42.6172 24.1172 41.8633 24.1172C41.0938 24.1172 40.4883 23.873 40.0469 23.3848V26.4375H38.9629V17.6602H39.9531L40.0059 18.3633C40.4473 17.8164 41.0605 17.543 41.8457 17.543C42.6074 17.543 43.209 17.8301 43.6504 18.4043C44.0957 18.9785 44.3184 19.7773 44.3184 20.8008V20.9004ZM43.2344 20.7773C43.2344 20.0625 43.082 19.498 42.7773 19.084C42.4727 18.6699 42.0547 18.4629 41.5234 18.4629C40.8672 18.4629 40.375 18.7539 40.0469 19.3359V22.3652C40.3711 22.9434 40.8672 23.2324 41.5352 23.2324C42.0547 23.2324 42.4668 23.0273 42.7715 22.6172C43.0801 22.2031 43.2344 21.5898 43.2344 20.7773ZM49.3926 22.3184C49.3926 22.0254 49.2812 21.7988 49.0586 21.6387C48.8398 21.4746 48.4551 21.334 47.9043 21.2168C47.3574 21.0996 46.9219 20.959 46.5977 20.7949C46.2773 20.6309 46.0391 20.4355 45.8828 20.209C45.7305 19.9824 45.6543 19.7129 45.6543 19.4004C45.6543 18.8809 45.873 18.4414 46.3105 18.082C46.752 17.7227 47.3145 17.543 47.998 17.543C48.7168 17.543 49.2988 17.7285 49.7441 18.0996C50.1934 18.4707 50.418 18.9453 50.418 19.5234H49.3281C49.3281 19.2266 49.2012 18.9707 48.9473 18.7559C48.6973 18.541 48.3809 18.4336 47.998 18.4336C47.6035 18.4336 47.2949 18.5195 47.0723 18.6914C46.8496 18.8633 46.7383 19.0879 46.7383 19.3652C46.7383 19.627 46.8418 19.8242 47.0488 19.957C47.2559 20.0898 47.6289 20.2168 48.168 20.3379C48.7109 20.459 49.1504 20.6035 49.4863 20.7715C49.8223 20.9395 50.0703 21.1426 50.2305 21.3809C50.3945 21.6152 50.4766 21.9023 50.4766 22.2422C50.4766 22.8086 50.25 23.2637 49.7969 23.6074C49.3438 23.9473 48.7559 24.1172 48.0332 24.1172C47.5254 24.1172 47.0762 24.0273 46.6855 23.8477C46.2949 23.668 45.9883 23.418 45.7656 23.0977C45.5469 22.7734 45.4375 22.4238 45.4375 22.0488H46.5215C46.541 22.4121 46.6855 22.7012 46.9551 22.916C47.2285 23.127 47.5879 23.2324 48.0332 23.2324C48.4434 23.2324 48.7715 23.1504 49.0176 22.9863C49.2676 22.8184 49.3926 22.5957 49.3926 22.3184ZM54.5195 24.1172C53.6602 24.1172 52.9609 23.8359 52.4219 23.2734C51.8828 22.707 51.6133 21.9512 51.6133 21.0059V20.8066C51.6133 20.1777 51.7324 19.6172 51.9707 19.125C52.2129 18.6289 52.5488 18.2422 52.9785 17.9648C53.4121 17.6836 53.8809 17.543 54.3848 17.543C55.209 17.543 55.8496 17.8145 56.3066 18.3574C56.7637 18.9004 56.9922 19.6777 56.9922 20.6895V21.1406H52.6973C52.7129 21.7656 52.8945 22.2715 53.2422 22.6582C53.5938 23.041 54.0391 23.2324 54.5781 23.2324C54.9609 23.2324 55.2852 23.1543 55.5508 22.998C55.8164 22.8418 56.0488 22.6348 56.248 22.377L56.9102 22.8926C56.3789 23.709 55.582 24.1172 54.5195 24.1172ZM54.3848 18.4336C53.9473 18.4336 53.5801 18.5938 53.2832 18.9141C52.9863 19.2305 52.8027 19.6758 52.7324 20.25H55.9082V20.168C55.877 19.6172 55.7285 19.1914 55.4629 18.8906C55.1973 18.5859 54.8379 18.4336 54.3848 18.4336Z" fill="#DDDDDD"/>
<path d="M79 20C79 24.94 74.9693 29.6816 67.8371 33.2477C60.7646 36.7839 50.9241 39 40 39C29.0759 39 19.2354 36.7839 12.1629 33.2477C5.03067 29.6816 1 24.94 1 20C1 15.06 5.03067 10.3184 12.1629 6.75229C19.2354 3.21606 29.0759 1 40 1C50.9241 1 60.7646 3.21606 67.8371 6.75229C74.9693 10.3184 79 15.06 79 20Z" stroke="#FF4136" stroke-width="2"/>
</svg>
