<svg width="40" height="40" viewBox="0 0 40 40" fill="none" xmlns="http://www.w3.org/2000/svg">
<path fill-rule="evenodd" clip-rule="evenodd" d="M40 0H0V40H40V0ZM5.22736 9.34508C5.07928 9.86823 5 10.4206 5 10.9916C5 14.3007 7.66248 16.9832 10.9468 16.9832C11.5135 16.9832 12.0618 16.9033 12.581 16.7541L29.7648 34.0675C30.3187 34.6426 31.0941 35 31.9523 35C33.6355 35 35 33.6252 35 31.9293C35 31.0815 34.6592 30.3138 34.1079 29.7581L16.7623 12.2817L16.7534 12.2906C16.8452 11.8723 16.8936 11.4377 16.8936 10.9916C16.8936 7.68253 14.2311 5 10.9468 5C10.5092 5 10.0827 5.04762 9.67206 5.13798L11.8226 7.30476C13.0128 8.50394 13.0128 10.4482 11.8226 11.6474C10.6324 12.8466 8.7027 12.8466 7.51245 11.6474L5.22736 9.34508ZM31.92 33.4558C32.7484 33.4558 33.42 32.7852 33.42 31.9579C33.42 31.1306 32.7484 30.46 31.92 30.46C31.0916 30.46 30.42 31.1306 30.42 31.9579C30.42 32.7852 31.0916 33.4558 31.92 33.4558Z" fill="#001F3F"/>
</svg>
