<svg width="80" height="40" viewBox="0 0 80 40" fill="none" xmlns="http://www.w3.org/2000/svg">
<rect x="1" y="1" width="78" height="38" stroke="#FF4136" stroke-width="2"/>
<path d="M17.5527 20.5488H15.5488V24H14.418V15.4688H17.2422C18.2031 15.4688 18.9414 15.6875 19.457 16.125C19.9766 16.5625 20.2363 17.1992 20.2363 18.0352C20.2363 18.5664 20.0918 19.0293 19.8027 19.4238C19.5176 19.8184 19.1191 20.1133 18.6074 20.3086L20.6113 23.9297V24H19.4043L17.5527 20.5488ZM15.5488 19.6289H17.2773C17.8359 19.6289 18.2793 19.4844 18.6074 19.1953C18.9395 18.9062 19.1055 18.5195 19.1055 18.0352C19.1055 17.5078 18.9473 17.1035 18.6309 16.8223C18.3184 16.541 17.8652 16.3984 17.2715 16.3945H15.5488V19.6289ZM24.2793 24.1172C23.4199 24.1172 22.7207 23.8359 22.1816 23.2734C21.6426 22.707 21.373 21.9512 21.373 21.0059V20.8066C21.373 20.1777 21.4922 19.6172 21.7305 19.125C21.9727 18.6289 22.3086 18.2422 22.7383 17.9648C23.1719 17.6836 23.6406 17.543 24.1445 17.543C24.9688 17.543 25.6094 17.8145 26.0664 18.3574C26.5234 18.9004 26.752 19.6777 26.752 20.6895V21.1406H22.457C22.4727 21.7656 22.6543 22.2715 23.002 22.6582C23.3535 23.041 23.7988 23.2324 24.3379 23.2324C24.7207 23.2324 25.0449 23.1543 25.3105 22.998C25.5762 22.8418 25.8086 22.6348 26.0078 22.377L26.6699 22.8926C26.1387 23.709 25.3418 24.1172 24.2793 24.1172ZM24.1445 18.4336C23.707 18.4336 23.3398 18.5938 23.043 18.9141C22.7461 19.2305 22.5625 19.6758 22.4922 20.25H25.668V20.168C25.6367 19.6172 25.4883 19.1914 25.2227 18.8906C24.957 18.5859 24.5977 18.4336 24.1445 18.4336ZM30.5547 23.2324C30.9414 23.2324 31.2793 23.1152 31.5684 22.8809C31.8574 22.6465 32.0176 22.3535 32.0488 22.002H33.0742C33.0547 22.3652 32.9297 22.7109 32.6992 23.0391C32.4688 23.3672 32.1602 23.6289 31.7734 23.8242C31.3906 24.0195 30.9844 24.1172 30.5547 24.1172C29.6914 24.1172 29.0039 23.8301 28.4922 23.2559C27.9844 22.6777 27.7305 21.8887 27.7305 20.8887V20.707C27.7305 20.0898 27.8438 19.541 28.0703 19.0605C28.2969 18.5801 28.6211 18.207 29.043 17.9414C29.4688 17.6758 29.9707 17.543 30.5488 17.543C31.2598 17.543 31.8496 17.7559 32.3184 18.1816C32.791 18.6074 33.043 19.1602 33.0742 19.8398H32.0488C32.0176 19.4297 31.8613 19.0938 31.5801 18.832C31.3027 18.5664 30.959 18.4336 30.5488 18.4336C29.998 18.4336 29.5703 18.6328 29.2656 19.0312C28.9648 19.4258 28.8145 19.998 28.8145 20.748V20.9531C28.8145 21.6836 28.9648 22.2461 29.2656 22.6406C29.5664 23.0352 29.9961 23.2324 30.5547 23.2324ZM35.7637 16.125V17.6602H36.9473V18.498H35.7637V22.4297C35.7637 22.6836 35.8164 22.875 35.9219 23.0039C36.0273 23.1289 36.207 23.1914 36.4609 23.1914C36.5859 23.1914 36.7578 23.168 36.9766 23.1211V24C36.6914 24.0781 36.4141 24.1172 36.1445 24.1172C35.6602 24.1172 35.2949 23.9707 35.0488 23.6777C34.8027 23.3848 34.6797 22.9688 34.6797 22.4297V18.498H33.5254V17.6602H34.6797V16.125H35.7637ZM42.1328 24C42.0703 23.875 42.0195 23.6523 41.9805 23.332C41.4766 23.8555 40.875 24.1172 40.1758 24.1172C39.5508 24.1172 39.0371 23.9414 38.6348 23.5898C38.2363 23.2344 38.0371 22.7852 38.0371 22.2422C38.0371 21.582 38.2871 21.0703 38.7871 20.707C39.291 20.3398 39.998 20.1562 40.9082 20.1562H41.9629V19.6582C41.9629 19.2793 41.8496 18.9785 41.623 18.7559C41.3965 18.5293 41.0625 18.416 40.6211 18.416C40.2344 18.416 39.9102 18.5137 39.6484 18.709C39.3867 18.9043 39.2559 19.1406 39.2559 19.418H38.166C38.166 19.1016 38.2773 18.7969 38.5 18.5039C38.7266 18.207 39.0312 17.9727 39.4141 17.8008C39.8008 17.6289 40.2246 17.543 40.6855 17.543C41.416 17.543 41.9883 17.7266 42.4023 18.0938C42.8164 18.457 43.0312 18.959 43.0469 19.5996V22.5176C43.0469 23.0996 43.1211 23.5625 43.2695 23.9062V24H42.1328ZM40.334 23.1738C40.6738 23.1738 40.9961 23.0859 41.3008 22.9102C41.6055 22.7344 41.8262 22.5059 41.9629 22.2246V20.9238H41.1133C39.7852 20.9238 39.1211 21.3125 39.1211 22.0898C39.1211 22.4297 39.2344 22.6953 39.4609 22.8867C39.6875 23.0781 39.9785 23.1738 40.334 23.1738ZM45.7715 17.6602L45.8066 18.457C46.291 17.8477 46.9238 17.543 47.7051 17.543C49.0449 17.543 49.7207 18.2988 49.7324 19.8105V24H48.6484V19.8047C48.6445 19.3477 48.5391 19.0098 48.332 18.791C48.1289 18.5723 47.8105 18.4629 47.377 18.4629C47.0254 18.4629 46.7168 18.5566 46.4512 18.7441C46.1855 18.9316 45.9785 19.1777 45.8301 19.4824V24H44.7461V17.6602H45.7715ZM51.1094 20.7773C51.1094 19.7891 51.3379 19.0039 51.7949 18.4219C52.252 17.8359 52.8574 17.543 53.6113 17.543C54.3848 17.543 54.9883 17.8164 55.4219 18.3633L55.4746 17.6602H56.4648V23.8477C56.4648 24.668 56.2207 25.3145 55.7324 25.7871C55.248 26.2598 54.5957 26.4961 53.7754 26.4961C53.3184 26.4961 52.8711 26.3984 52.4336 26.2031C51.9961 26.0078 51.6621 25.7402 51.4316 25.4004L51.9941 24.75C52.459 25.3242 53.0273 25.6113 53.6992 25.6113C54.2266 25.6113 54.6367 25.4629 54.9297 25.166C55.2266 24.8691 55.375 24.4512 55.375 23.9121V23.3672C54.9414 23.8672 54.3496 24.1172 53.5996 24.1172C52.8574 24.1172 52.2559 23.8184 51.7949 23.2207C51.3379 22.623 51.1094 21.8086 51.1094 20.7773ZM52.1992 20.9004C52.1992 21.6152 52.3457 22.1777 52.6387 22.5879C52.9316 22.9941 53.3418 23.1973 53.8691 23.1973C54.5527 23.1973 55.0547 22.8867 55.375 22.2656V19.3711C55.043 18.7656 54.5449 18.4629 53.8809 18.4629C53.3535 18.4629 52.9414 18.668 52.6445 19.0781C52.3477 19.4883 52.1992 20.0957 52.1992 20.9004ZM59.2832 24H58.1992V15H59.2832V24ZM63.6543 24.1172C62.7949 24.1172 62.0957 23.8359 61.5566 23.2734C61.0176 22.707 60.748 21.9512 60.748 21.0059V20.8066C60.748 20.1777 60.8672 19.6172 61.1055 19.125C61.3477 18.6289 61.6836 18.2422 62.1133 17.9648C62.5469 17.6836 63.0156 17.543 63.5195 17.543C64.3438 17.543 64.9844 17.8145 65.4414 18.3574C65.8984 18.9004 66.127 19.6777 66.127 20.6895V21.1406H61.832C61.8477 21.7656 62.0293 22.2715 62.377 22.6582C62.7285 23.041 63.1738 23.2324 63.7129 23.2324C64.0957 23.2324 64.4199 23.1543 64.6855 22.998C64.9512 22.8418 65.1836 22.6348 65.3828 22.377L66.0449 22.8926C65.5137 23.709 64.7168 24.1172 63.6543 24.1172ZM63.5195 18.4336C63.082 18.4336 62.7148 18.5938 62.418 18.9141C62.1211 19.2305 61.9375 19.6758 61.8672 20.25H65.043V20.168C65.0117 19.6172 64.8633 19.1914 64.5977 18.8906C64.332 18.5859 63.9727 18.4336 63.5195 18.4336Z" fill="#DDDDDD"/>
</svg>
